# xmcd
# 
# Track frame offsets:
#     150
#     15777
#     33012
#     50470
#     66925
#     86022
#     102562
#     119477
#     134445
#     152030
#     166832
# 
# Disc length: 2598
# 
# Revision: 2
# Processed by: cddbd v1.5.2PL0 Copyright (c) Steve Scherf et al.
# Submitted via: fre:ac v1.0.31
# 
DISCID=860a240b
DTITLE=Alberto Plaza - Bandido
DYEAR=1996
DGENRE=Pop
TTITLE0=Bandido
TTITLE1=Se que piensas en mi
TTITLE2=Sentencia
TTITLE3=Mejor estar en compañia
TTITLE4=Se acabo
TTITLE5=Promesas
TTITLE6=Hablando de ti
TTITLE7=Aparecicte tu
TTITLE8=Si estuvieras aqui
TTITLE9=Bolero en Paris
TTITLE10=Comenzar de nuevo
EXTD=
EXTT0=
EXTT1=
EXTT2=
EXTT3=
EXTT4=
EXTT5=
EXTT6=
EXTT7=
EXTT8=
EXTT9=
EXTT10=
PLAYORDER=
